<?xml version="1.0" standalone="no"?>
<!DOCTYPE svg PUBLIC "-//W3C//DTD SVG 20010904//EN"
 "http://www.w3.org/TR/2001/REC-SVG-20010904/DTD/svg10.dtd">
<svg version="1.0" xmlns="http://www.w3.org/2000/svg"
 width="533.000000pt" height="300.000000pt" viewBox="0 0 533.000000 300.000000"
 preserveAspectRatio="xMidYMid meet">

<g transform="translate(0.000000,300.000000) scale(0.100000,-0.100000)"
fill="#000000" stroke="none">
<path d="M1792 1740 c-107 -45 -159 -166 -117 -268 55 -130 232 -169 338 -73
49 45 67 85 67 153 0 67 -30 121 -88 162 -36 25 -54 31 -110 33 -37 2 -77 -2
-90 -7z m164 -29 c77 -35 121 -130 100 -215 -9 -36 -65 -96 -103 -112 -76 -32
-185 -8 -231 51 -122 154 52 359 234 276z"/>
</g>
</svg>
