<?xml version="1.0" standalone="no"?>
<!DOCTYPE svg PUBLIC "-//W3C//DTD SVG 20010904//EN"
 "http://www.w3.org/TR/2001/REC-SVG-20010904/DTD/svg10.dtd">
<svg version="1.0" xmlns="http://www.w3.org/2000/svg"
 width="512.000000pt" height="512.000000pt" viewBox="0 0 512.000000 512.000000"
 preserveAspectRatio="xMidYMid meet">

<g transform="translate(0.000000,512.000000) scale(0.100000,-0.100000)"
fill="#000000" stroke="none">
<path d="M1220 4803 c-456 -49 -861 -340 -1065 -767 -158 -332 -196 -725 -105
-1082 120 -468 430 -878 1155 -1525 243 -217 1265 -1089 1295 -1104 39 -20 88
-19 127 3 17 9 123 96 235 193 111 97 379 326 593 510 422 361 520 448 751
666 662 624 935 1139 911 1713 -17 402 -165 750 -431 1015 -193 192 -405 306
-676 362 -120 25 -374 25 -490 0 -247 -53 -452 -165 -637 -349 -97 -95 -208
-237 -273 -350 -25 -43 -47 -78 -50 -78 -3 0 -25 35 -50 78 -109 188 -305 404
-464 511 -99 67 -238 133 -336 161 -150 42 -343 59 -490 43z m372 -322 c95
-25 206 -75 287 -130 212 -144 405 -414 515 -719 14 -40 33 -86 41 -102 18
-35 81 -70 125 -70 43 0 107 35 124 68 7 15 31 72 51 127 200 534 582 855
1021 855 585 0 1031 -465 1061 -1105 20 -438 -176 -834 -656 -1328 -245 -252
-413 -402 -1178 -1056 l-423 -361 -487 417 c-668 570 -804 693 -1053 942 -364
365 -546 620 -648 911 -52 150 -66 238 -66 420 0 183 15 282 66 430 136 388
451 661 833 720 95 14 298 5 387 -19z"/>
</g>
</svg>
