<?xml version="1.0" standalone="no"?>
<!DOCTYPE svg PUBLIC "-//W3C//DTD SVG 20010904//EN"
 "http://www.w3.org/TR/2001/REC-SVG-20010904/DTD/svg10.dtd">
<svg version="1.0" xmlns="http://www.w3.org/2000/svg"
 width="600.000000pt" height="420.000000pt" viewBox="0 0 600.000000 420.000000"
 preserveAspectRatio="xMidYMid meet">

<g transform="translate(0.000000,420.000000) scale(0.100000,-0.100000)"
fill="#000000" stroke="none">
<path d="M3096 2489 c-63 -55 -57 -129 13 -176 88 -59 215 13 197 112 -4 21
-20 45 -42 64 -29 26 -43 31 -84 31 -41 0 -55 -5 -84 -31z m156 -29 c25 -26
29 -36 24 -63 -9 -45 -48 -77 -96 -77 -48 0 -87 32 -96 77 -5 27 -1 37 24 63
24 24 39 30 72 30 33 0 48 -6 72 -30z"/>
</g>
</svg>
