<?xml version="1.0" standalone="no"?>
<!DOCTYPE svg PUBLIC "-//W3C//DTD SVG 20010904//EN"
 "http://www.w3.org/TR/2001/REC-SVG-20010904/DTD/svg10.dtd">
<svg version="1.0" xmlns="http://www.w3.org/2000/svg"
 width="400.000000pt" height="400.000000pt" viewBox="0 0 400.000000 400.000000"
 preserveAspectRatio="xMidYMid meet">

<g transform="translate(0.000000,400.000000) scale(0.100000,-0.100000)"
fill="#000000" stroke="none">
<path d="M1805 2100 c50 -3 84 -7 78 -8 -7 -1 -13 -8 -13 -15 0 -11 -30 -16
-122 -20 -192 -11 -229 -9 -243 10 -7 9 -22 18 -34 20 -20 3 -21 -1 -19 -75 1
-54 3 -63 5 -29 3 38 8 47 23 47 15 0 20 -9 23 -47 l3 -48 2 53 2 52 58 0 c33
0 113 3 180 7 l121 6 4 -54 3 -54 2 53 c1 28 7 52 12 52 6 0 10 7 10 15 0 8 5
15 10 15 6 0 11 -30 12 -67 l2 -68 3 64 c6 91 -8 102 -124 99 l-88 -2 90 -6z
m-307 -42 c-3 -7 -11 -13 -18 -13 -7 0 -15 6 -17 13 -3 7 4 12 17 12 13 0 20
-5 18 -12z"/>
<path d="M1553 2093 c32 -2 81 -2 110 0 29 2 3 3 -58 3 -60 0 -84 -1 -52 -3z"/>
<path d="M1862 1803 l-2 -143 -162 -2 -163 -2 158 -3 c120 -3 162 -7 173 -18
8 -7 14 -16 14 -19 0 -3 -78 -7 -172 -9 l-173 -3 178 -2 c152 -2 177 0 177 13
0 8 7 15 15 15 13 0 15 23 13 158 l-2 157 -3 -152 c-2 -84 -6 -153 -9 -153 -3
0 -12 6 -19 14 -11 10 -15 50 -18 152 l-3 139 -2 -142z"/>
<path d="M1442 1783 c-2 -132 0 -156 15 -173 10 -11 24 -20 32 -20 11 0 10 4
-5 15 -17 13 -17 14 -1 15 16 0 17 13 15 158 l-2 157 -3 -142 c-3 -118 -6
-143 -18 -143 -8 0 -16 -6 -17 -12 -1 -7 -5 57 -8 142 l-6 155 -2 -152z"/>
</g>
</svg>
