<?xml version="1.0" standalone="no"?>
<!DOCTYPE svg PUBLIC "-//W3C//DTD SVG 20010904//EN"
 "http://www.w3.org/TR/2001/REC-SVG-20010904/DTD/svg10.dtd">
<svg version="1.0" xmlns="http://www.w3.org/2000/svg"
 width="252.000000pt" height="600.000000pt" viewBox="0 0 252.000000 600.000000"
 preserveAspectRatio="xMidYMid meet">

<g transform="translate(0.000000,600.000000) scale(0.100000,-0.100000)"
fill="#000000" stroke="none">
<path d="M1234 1999 c-317 -30 -597 -262 -679 -564 -26 -93 -31 -246 -11 -346
20 -100 84 -237 150 -321 96 -121 255 -225 412 -270 114 -32 324 -32 438 0
278 79 492 298 557 569 18 73 20 108 16 203 -8 183 -62 321 -176 453 -103 119
-206 189 -348 237 -80 26 -115 33 -243 44 -19 2 -71 0 -116 -5z m296 -80 c189
-50 371 -198 459 -372 97 -193 94 -441 -7 -631 -67 -125 -213 -261 -346 -322
-73 -33 -222 -64 -311 -64 -89 0 -238 31 -311 64 -132 61 -273 192 -345 321
-102 184 -104 442 -6 634 84 166 258 311 437 366 116 36 303 37 430 4z"/>
</g>
</svg>
