<?xml version="1.0" standalone="no"?>
<!DOCTYPE svg PUBLIC "-//W3C//DTD SVG 20010904//EN"
 "http://www.w3.org/TR/2001/REC-SVG-20010904/DTD/svg10.dtd">
<svg version="1.0" xmlns="http://www.w3.org/2000/svg"
 width="400.000000pt" height="400.000000pt" viewBox="0 0 400.000000 400.000000"
 preserveAspectRatio="xMidYMid meet">

<g transform="translate(0.000000,400.000000) scale(0.100000,-0.100000)"
fill="#000000" stroke="none">
<path d="M1303 2133 l-63 -4 0 -32 c-1 -27 -3 -30 -13 -17 -7 9 -25 14 -45 12
-30 -3 -33 -6 -28 -30 3 -15 13 -94 22 -175 l17 -148 31 3 31 3 -2 68 -2 67
49 0 49 0 3 93 3 92 28 3 c24 3 27 8 27 38 0 29 -3 34 -22 32 -13 -1 -51 -3
-85 -5z m87 -27 c0 -17 -31 -26 -87 -26 -31 0 -43 4 -43 14 0 11 15 16 53 19
28 2 58 4 65 5 6 1 12 -4 12 -12z m-174 -132 c25 -207 26 -214 11 -214 -10 0
-18 35 -30 138 -20 163 -21 175 -4 170 7 -3 16 -40 23 -94z m114 1 l0 -75 -40
0 -40 0 0 75 0 75 40 0 40 0 0 -75z"/>
</g>
</svg>
