<?xml version="1.0" standalone="no"?>
<!DOCTYPE svg PUBLIC "-//W3C//DTD SVG 20010904//EN"
 "http://www.w3.org/TR/2001/REC-SVG-20010904/DTD/svg10.dtd">
<svg version="1.0" xmlns="http://www.w3.org/2000/svg"
 width="400.000000pt" height="400.000000pt" viewBox="0 0 400.000000 400.000000"
 preserveAspectRatio="xMidYMid meet">

<g transform="translate(0.000000,400.000000) scale(0.100000,-0.100000)"
fill="#000000" stroke="none">
<path d="M1347 2008 c7 -98 13 -114 13 -35 0 50 2 57 20 57 16 0 20 -8 23 -57
l3 -58 2 58 2 57 64 0 65 0 4 -52 3 -53 2 53 c1 28 7 52 12 52 6 0 10 7 10 15
0 8 4 15 10 15 5 0 11 -30 13 -67 l3 -68 2 73 c2 58 -1 72 -13 72 -8 0 -15 5
-15 10 0 6 -45 10 -115 10 l-114 0 6 -82z m206 65 c-7 -2 -13 -11 -13 -19 0
-11 -16 -14 -65 -14 -58 0 -65 2 -65 20 0 18 6 20 78 19 42 0 71 -3 65 -6z
m-153 -18 c0 -8 -9 -15 -20 -15 -11 0 -20 7 -20 15 0 8 9 15 20 15 11 0 20 -7
20 -15z"/>
<path d="M1551 1909 c-1 -12 -15 -18 -47 -23 -71 -9 -84 -8 -85 12 0 13 -2 14
-6 2 -3 -8 -14 -23 -24 -32 -17 -17 -18 -16 -22 15 l-4 32 -1 -32 c-3 -59 19
-69 126 -59 68 6 92 12 92 22 0 8 7 14 15 14 11 0 15 10 14 33 -2 30 -2 30 -6
5 -2 -16 -7 -28 -9 -28 -9 0 -30 24 -37 40 -4 13 -6 12 -6 -1z m6 -44 c8 -9
13 -18 11 -20 -2 -3 -44 -7 -94 -9 -49 -3 -81 -3 -71 0 9 3 17 12 17 19 0 13
21 18 98 23 13 1 30 -5 39 -13z"/>
</g>
</svg>
