<?xml version="1.0" standalone="no"?>
<!DOCTYPE svg PUBLIC "-//W3C//DTD SVG 20010904//EN"
 "http://www.w3.org/TR/2001/REC-SVG-20010904/DTD/svg10.dtd">
<svg version="1.0" xmlns="http://www.w3.org/2000/svg"
 width="54.000000pt" height="59.000000pt" viewBox="0 0 54.000000 59.000000"
 preserveAspectRatio="xMidYMid meet">

<g transform="translate(0.000000,59.000000) scale(0.100000,-0.100000)"
fill="#000000" stroke="none">
<path d="M171 490 c-65 -15 -124 -79 -137 -147 -21 -110 99 -230 209 -209 103
19 177 131 148 227 -29 95 -124 151 -220 129z m136 -36 c53 -40 68 -71 68
-139 0 -69 -15 -99 -69 -139 -39 -30 -143 -30 -182 0 -106 79 -95 238 21 290
41 20 129 13 162 -12z"/>
</g>
</svg>
