<?xml version="1.0" standalone="no"?>
<!DOCTYPE svg PUBLIC "-//W3C//DTD SVG 20010904//EN"
 "http://www.w3.org/TR/2001/REC-SVG-20010904/DTD/svg10.dtd">
<svg version="1.0" xmlns="http://www.w3.org/2000/svg"
 width="400.000000pt" height="400.000000pt" viewBox="0 0 400.000000 400.000000"
 preserveAspectRatio="xMidYMid meet">

<g transform="translate(0.000000,400.000000) scale(0.100000,-0.100000)"
fill="#000000" stroke="none">
<path d="M1480 2235 c0 -13 -8 -28 -17 -34 -16 -9 -18 -33 -21 -240 l-4 -231
36 0 c24 0 36 5 36 14 0 11 37 15 179 21 98 4 208 4 245 0 l66 -7 0 198 c0
110 3 223 6 252 l7 52 -267 0 -266 0 0 -25z m510 -10 c0 -13 -34 -15 -245 -15
-211 0 -245 2 -245 15 0 13 34 15 245 15 211 0 245 -2 245 -15z m-60 -210 l0
-175 -67 0 c-38 0 -132 -3 -210 -7 l-143 -6 0 60 c0 33 3 115 7 181 l6 122
204 0 203 0 0 -175z m-434 128 c-3 -21 -7 -118 -8 -215 -2 -134 -6 -178 -15
-178 -15 0 -17 130 -6 318 5 88 9 112 20 112 11 0 13 -9 9 -37z m484 -138 c0
-140 -2 -165 -15 -165 -13 0 -15 25 -15 165 0 140 2 165 15 165 13 0 15 -25
15 -165z m-50 -200 c0 -12 -14 -15 -67 -15 -38 0 -132 -3 -210 -7 -128 -5
-143 -4 -143 10 0 17 31 20 308 25 94 2 112 0 112 -13z m40 0 c0 -8 -4 -15
-10 -15 -5 0 -10 7 -10 15 0 8 5 15 10 15 6 0 10 -7 10 -15z"/>
</g>
</svg>
