<?xml version="1.0" standalone="no"?>
<!DOCTYPE svg PUBLIC "-//W3C//DTD SVG 20010904//EN"
 "http://www.w3.org/TR/2001/REC-SVG-20010904/DTD/svg10.dtd">
<svg version="1.0" xmlns="http://www.w3.org/2000/svg"
 width="500.000000pt" height="500.000000pt" viewBox="0 0 500.000000 500.000000"
 preserveAspectRatio="xMidYMid meet">

<g transform="translate(0.000000,500.000000) scale(0.100000,-0.100000)"
fill="#000000" stroke="none">
<path d="M1687 2508 c7 -122 13 -140 13 -40 0 70 1 72 25 72 23 0 24 -3 28
-67 l3 -68 2 68 2 68 83 -3 82 -3 6 -60 6 -60 1 63 c1 34 7 62 12 62 6 0 10 7
10 15 0 8 7 15 15 15 11 0 15 -18 18 -82 l3 -83 2 87 c2 79 0 87 -18 93 -11 3
-20 11 -20 16 0 5 -60 9 -140 9 l-139 0 6 -102z m246 67 c-17 -23 -23 -25 -93
-22 -69 2 -75 4 -78 25 -3 21 -1 22 93 22 l96 0 -18 -25z m-183 -5 c0 -15 -7
-20 -25 -20 -18 0 -25 5 -25 20 0 15 7 20 25 20 18 0 25 -5 25 -20z"/>
<path d="M2002 2373 c-1 -18 -7 -33 -13 -33 -14 0 -39 26 -39 41 0 8 -5 6 -12
-4 -9 -12 -35 -19 -90 -23 -72 -6 -78 -5 -79 12 0 16 -2 16 -9 -4 -5 -12 -7
-29 -4 -37 4 -8 1 -15 -5 -15 -6 0 -11 8 -11 18 -1 15 -2 15 -13 -3 -11 -18
-12 -17 -18 20 l-6 40 -2 -42 c-1 -31 3 -43 13 -43 8 0 16 -7 20 -15 3 -8 11
-15 17 -15 8 0 8 4 -1 15 -10 12 -10 15 3 15 8 0 17 8 20 19 6 25 150 40 172
17 25 -24 17 -35 -27 -39 l-43 -4 44 -1 c56 -3 94 33 88 82 l-4 31 -1 -32z"/>
<path d="M1798 2283 c12 -2 30 -2 40 0 9 3 -1 5 -23 4 -22 0 -30 -2 -17 -4z"/>
</g>
</svg>
