<?xml version="1.0" standalone="no"?>
<!DOCTYPE svg PUBLIC "-//W3C//DTD SVG 20010904//EN"
 "http://www.w3.org/TR/2001/REC-SVG-20010904/DTD/svg10.dtd">
<svg version="1.0" xmlns="http://www.w3.org/2000/svg"
 width="533.000000pt" height="300.000000pt" viewBox="0 0 533.000000 300.000000"
 preserveAspectRatio="xMidYMid meet">

<g transform="translate(0.000000,300.000000) scale(0.100000,-0.100000)"
fill="#000000" stroke="none">
<path d="M2687 1697 c-164 -51 -198 -260 -59 -360 36 -26 54 -32 110 -35 56
-3 74 0 112 20 130 70 148 242 34 336 -35 29 -101 53 -141 51 -10 0 -35 -6
-56 -12z m139 -28 c36 -11 88 -63 103 -102 29 -77 -1 -168 -71 -214 -35 -24
-52 -28 -108 -28 -57 0 -73 4 -108 29 -85 58 -107 174 -48 251 59 77 127 96
232 64z"/>
</g>
</svg>
