<?xml version="1.0" standalone="no"?>
<!DOCTYPE svg PUBLIC "-//W3C//DTD SVG 20010904//EN"
 "http://www.w3.org/TR/2001/REC-SVG-20010904/DTD/svg10.dtd">
<svg version="1.0" xmlns="http://www.w3.org/2000/svg"
 width="400.000000pt" height="400.000000pt" viewBox="0 0 400.000000 400.000000"
 preserveAspectRatio="xMidYMid meet">

<g transform="translate(0.000000,400.000000) scale(0.100000,-0.100000)"
fill="#000000" stroke="none">
<path d="M1796 2011 c-12 -14 -19 -44 -23 -109 -8 -116 2 -129 95 -124 45 3
62 8 62 18 0 8 7 14 15 14 12 0 15 17 15 90 0 77 -3 93 -20 110 -28 28 -119
28 -144 1z m124 -13 c0 -19 -2 -20 -10 -8 -6 10 -10 11 -10 3 0 -20 -49 -15
-72 7 l-22 20 57 0 c52 0 57 -2 57 -22z m-87 -49 c4 -10 6 -9 6 4 1 12 9 17
31 17 l30 0 0 -65 0 -65 -34 0 c-34 0 -35 1 -39 48 -3 42 -4 41 -5 -15 -1 -37
-6 -63 -13 -63 -5 0 -7 5 -4 10 3 6 2 10 -4 10 -5 0 -12 -6 -14 -12 -8 -19 -8
82 -1 134 6 44 7 45 24 28 10 -10 20 -24 23 -31z m117 -44 c0 -47 -3 -85 -6
-85 -45 0 -46 167 -1 170 4 0 7 -38 7 -85z m-43 -90 c8 -9 14 -18 12 -20 -7
-7 -109 -9 -115 -2 -4 4 0 7 9 7 10 0 17 7 17 15 0 20 56 20 77 0z"/>
</g>
</svg>
