<?xml version="1.0" standalone="no"?>
<!DOCTYPE svg PUBLIC "-//W3C//DTD SVG 20010904//EN"
 "http://www.w3.org/TR/2001/REC-SVG-20010904/DTD/svg10.dtd">
<svg version="1.0" xmlns="http://www.w3.org/2000/svg"
 width="400.000000pt" height="400.000000pt" viewBox="0 0 400.000000 400.000000"
 preserveAspectRatio="xMidYMid meet">

<g transform="translate(0.000000,400.000000) scale(0.100000,-0.100000)"
fill="#000000" stroke="none">
<path d="M1694 2339 c-14 -16 -19 -36 -19 -79 0 -43 5 -63 19 -79 44 -49 91
-9 91 79 0 62 -21 100 -55 100 -9 0 -25 -9 -36 -21z m60 -21 c22 -32 20 -91
-4 -119 l-20 -24 -20 24 c-12 14 -20 38 -20 60 0 36 22 81 40 81 5 0 16 -10
24 -22z"/>
</g>
</svg>
