<?xml version="1.0" standalone="no"?>
<!DOCTYPE svg PUBLIC "-//W3C//DTD SVG 20010904//EN"
 "http://www.w3.org/TR/2001/REC-SVG-20010904/DTD/svg10.dtd">
<svg version="1.0" xmlns="http://www.w3.org/2000/svg"
 width="181.000000pt" height="150.000000pt" viewBox="0 0 181.000000 150.000000"
 preserveAspectRatio="xMidYMid meet">

<g transform="translate(0.000000,150.000000) scale(0.100000,-0.100000)"
fill="#000000" stroke="none">
<path d="M784 1360 c-226 -59 -411 -240 -469 -460 -17 -65 -20 -227 -4 -302 6
-29 29 -91 52 -138 76 -158 229 -283 411 -339 97 -30 285 -30 382 0 182 56
334 181 411 339 50 102 63 162 63 280 0 116 -13 178 -60 275 -81 170 -240 298
-428 346 -100 25 -260 25 -358 -1z m388 -57 c187 -66 345 -232 393 -413 19
-71 19 -229 0 -300 -49 -184 -213 -354 -398 -412 -103 -33 -301 -33 -404 0
-185 58 -349 228 -398 412 -19 70 -19 229 0 299 52 195 215 360 418 422 87 26
306 22 389 -8z"/>
</g>
</svg>
