<?xml version="1.0" standalone="no"?>
<!DOCTYPE svg PUBLIC "-//W3C//DTD SVG 20010904//EN"
 "http://www.w3.org/TR/2001/REC-SVG-20010904/DTD/svg10.dtd">
<svg version="1.0" xmlns="http://www.w3.org/2000/svg"
 width="400.000000pt" height="400.000000pt" viewBox="0 0 400.000000 400.000000"
 preserveAspectRatio="xMidYMid meet">

<g transform="translate(0.000000,400.000000) scale(0.100000,-0.100000)"
fill="#000000" stroke="none">
<path d="M1474 2901 c-2 -2 -4 -332 -4 -732 0 -654 2 -727 16 -733 9 -3 269
-6 579 -6 439 0 565 3 573 13 10 12 -12 1371 -23 1424 -5 20 -13 21 -117 27
-130 7 -1018 13 -1024 7z m1069 -81 c3 -3 10 -257 16 -565 6 -308 13 -604 16
-657 l5 -98 -520 0 -520 0 0 666 0 665 499 -3 c275 -2 501 -5 504 -8z"/>
</g>
</svg>
