<?xml version="1.0" standalone="no"?>
<!DOCTYPE svg PUBLIC "-//W3C//DTD SVG 20010904//EN"
 "http://www.w3.org/TR/2001/REC-SVG-20010904/DTD/svg10.dtd">
<svg version="1.0" xmlns="http://www.w3.org/2000/svg"
 width="600.000000pt" height="420.000000pt" viewBox="0 0 600.000000 420.000000"
 preserveAspectRatio="xMidYMid meet">

<g transform="translate(0.000000,420.000000) scale(0.100000,-0.100000)"
fill="#000000" stroke="none">
<path d="M2634 2600 c-54 -27 -86 -73 -92 -131 -6 -62 12 -112 53 -148 121
-106 315 -26 315 130 0 128 -151 210 -276 149z m165 -25 c111 -57 108 -201 -5
-256 -57 -27 -121 -21 -171 17 -40 31 -53 59 -53 119 0 36 6 52 32 81 18 20
41 40 52 44 34 14 115 11 145 -5z"/>
</g>
</svg>
