<?xml version="1.0" standalone="no"?>
<!DOCTYPE svg PUBLIC "-//W3C//DTD SVG 20010904//EN"
 "http://www.w3.org/TR/2001/REC-SVG-20010904/DTD/svg10.dtd">
<svg version="1.0" xmlns="http://www.w3.org/2000/svg"
 width="400.000000pt" height="400.000000pt" viewBox="0 0 400.000000 400.000000"
 preserveAspectRatio="xMidYMid meet">

<g transform="translate(0.000000,400.000000) scale(0.100000,-0.100000)"
fill="#000000" stroke="none">
<path d="M2250 2113 c-83 -8 -78 -1 -79 -118 -1 -86 2 -108 16 -125 10 -11 21
-20 26 -20 5 0 4 7 -3 15 -10 12 -10 15 4 15 9 0 16 7 16 15 0 11 12 15 46 15
39 0 74 -16 74 -34 0 -3 -28 -7 -62 -9 l-63 -3 68 -2 c54 -2 67 1 67 13 0 8 7
15 15 15 12 0 15 18 15 98 0 131 -8 139 -140 125z m93 -10 c-7 -2 -13 -10 -13
-18 0 -13 -51 -25 -113 -25 -31 0 -38 3 -35 18 2 12 16 19 53 23 64 8 124 9
108 2z m37 -108 c0 -52 -3 -95 -6 -95 -3 0 -12 6 -20 14 -16 17 -20 146 -4
146 6 0 10 7 10 15 0 8 5 15 10 15 6 0 10 -38 10 -95z m-50 -5 l0 -70 -50 0
-50 0 0 64 c0 63 1 65 28 69 75 11 72 14 72 -63z m-110 -8 c0 -45 -4 -61 -20
-75 -20 -17 -20 -16 -20 58 0 68 2 75 20 75 18 0 20 -7 20 -58z"/>
</g>
</svg>
