<?xml version="1.0" standalone="no"?>
<!DOCTYPE svg PUBLIC "-//W3C//DTD SVG 20010904//EN"
 "http://www.w3.org/TR/2001/REC-SVG-20010904/DTD/svg10.dtd">
<svg version="1.0" xmlns="http://www.w3.org/2000/svg"
 width="550.000000pt" height="550.000000pt" viewBox="0 0 550.000000 550.000000"
 preserveAspectRatio="xMidYMid meet">

<g transform="translate(0.000000,550.000000) scale(0.100000,-0.100000)"
fill="#000000" stroke="none">
<path d="M2490 5484 c-14 -2 -79 -11 -145 -20 -597 -79 -1224 -414 -1632 -873
-364 -409 -597 -901 -679 -1436 -27 -170 -27 -638 -1 -805 171 -1098 958
-1977 2019 -2255 265 -69 357 -80 698 -80 271 0 319 3 435 23 287 50 525 127
780 252 762 375 1303 1077 1475 1915 67 328 67 762 0 1090 -51 248 -115 436
-230 670 -355 723 -1017 1256 -1800 1449 -237 58 -325 68 -625 71 -148 2 -281
1 -295 -1z m587 -59 c614 -80 1146 -341 1583 -775 424 -421 689 -970 765
-1580 19 -157 20 -475 1 -635 -88 -743 -470 -1403 -1071 -1850 -581 -433
-1328 -610 -2060 -490 -399 66 -811 240 -1135 478 -608 448 -996 1112 -1086
1857 -17 148 -17 492 0 640 50 414 200 823 424 1160 120 180 203 282 342 420
434 431 962 691 1570 774 147 20 517 20 667 1z"/>
</g>
</svg>
