<?xml version="1.0" standalone="no"?>
<!DOCTYPE svg PUBLIC "-//W3C//DTD SVG 20010904//EN"
 "http://www.w3.org/TR/2001/REC-SVG-20010904/DTD/svg10.dtd">
<svg version="1.0" xmlns="http://www.w3.org/2000/svg"
 width="512.000000pt" height="512.000000pt" viewBox="0 0 512.000000 512.000000"
 preserveAspectRatio="xMidYMid meet">

<g transform="translate(0.000000,512.000000) scale(0.100000,-0.100000)"
fill="#000000" stroke="none">
<path d="M166 4194 c-57 -21 -102 -58 -133 -112 l-28 -47 0 -1475 0 -1475 28
-47 c32 -55 76 -92 136 -113 39 -13 316 -15 2391 -15 2075 0 2352 2 2391 15
60 21 104 58 136 113 l28 47 0 1475 0 1475 -28 47 c-32 55 -76 92 -136 113
-39 13 -316 15 -2395 14 -2014 0 -2357 -2 -2390 -15z m4732 -206 c17 -17 17
-2839 0 -2856 -17 -17 -4659 -17 -4676 0 -17 17 -17 2839 0 2856 17 17 4659
17 4676 0z"/>
</g>
</svg>
