<?xml version="1.0" standalone="no"?>
<!DOCTYPE svg PUBLIC "-//W3C//DTD SVG 20010904//EN"
 "http://www.w3.org/TR/2001/REC-SVG-20010904/DTD/svg10.dtd">
<svg version="1.0" xmlns="http://www.w3.org/2000/svg"
 width="400.000000pt" height="600.000000pt" viewBox="0 0 400.000000 600.000000"
 preserveAspectRatio="xMidYMid meet">

<g transform="translate(0.000000,600.000000) scale(0.100000,-0.100000)"
fill="#000000" stroke="none">
<path d="M1935 3088 c-68 -73 -99 -136 -90 -178 13 -61 87 -80 130 -35 l23 26
26 -26 c40 -40 104 -27 127 26 9 24 9 37 -5 73 -16 41 -128 176 -146 176 -4 0
-34 -28 -65 -62z m107 5 c60 -64 98 -124 98 -156 0 -39 -26 -67 -61 -67 -29 0
-69 33 -69 57 0 22 -14 14 -35 -20 -24 -38 -67 -48 -96 -21 -24 21 -24 60 -1
101 20 37 109 143 121 143 4 0 23 -17 43 -37z"/>
</g>
</svg>
