<?xml version="1.0" standalone="no"?>
<!DOCTYPE svg PUBLIC "-//W3C//DTD SVG 20010904//EN"
 "http://www.w3.org/TR/2001/REC-SVG-20010904/DTD/svg10.dtd">
<svg version="1.0" xmlns="http://www.w3.org/2000/svg"
 width="400.000000pt" height="600.000000pt" viewBox="0 0 400.000000 600.000000"
 preserveAspectRatio="xMidYMid meet">

<g transform="translate(0.000000,600.000000) scale(0.100000,-0.100000)"
fill="#000000" stroke="none">
<path d="M1535 3682 c-175 -60 -268 -185 -267 -357 1 -221 153 -464 531 -847
130 -133 180 -178 198 -178 31 0 308 275 437 433 188 230 272 381 296 532 28
172 -51 325 -205 401 -54 26 -70 29 -155 29 -80 0 -103 -4 -143 -24 -62 -30
-133 -103 -177 -180 -19 -33 -37 -61 -40 -61 -3 0 -14 17 -25 37 -96 180 -287
271 -450 215z m955 -82 c102 -51 160 -134 168 -241 11 -163 -74 -332 -308
-612 -101 -121 -335 -357 -354 -357 -19 0 -286 277 -386 401 -186 231 -258
370 -267 516 -6 78 -4 86 27 149 51 105 146 163 265 164 150 0 266 -105 329
-297 27 -82 64 -82 91 0 49 150 134 256 234 294 50 19 146 11 201 -17z"/>
</g>
</svg>
